<svg width="30" height="30" viewBox="0 0 30 30" fill="none" xmlns="http://www.w3.org/2000/svg">
<circle cx="15" cy="15" r="15" fill="#74C0FC"/>
<path d="M12.8593 7.73925C12.9895 7.40714 13.2571 7.19995 13.5488 7.19995H16.4513C16.743 7.19995 17.0105 7.40714 17.1407 7.73925L17.3143 8.17495H19.6286C20.0553 8.17495 20.4 8.61065 20.4 9.14995C20.4 9.68925 20.0553 10.125 19.6286 10.125H10.3714C9.94474 10.125 9.60001 9.68925 9.60001 9.14995C9.60001 8.61065 9.94474 8.17495 10.3714 8.17495H12.6857L12.8593 7.73925ZM10.3714 11.1H19.6286V20.85C19.6286 21.9255 18.9367 22.8 18.0857 22.8H11.9143C11.0633 22.8 10.3714 21.9255 10.3714 20.85V11.1ZM12.6857 13.05C12.4736 13.05 12.3 13.2693 12.3 13.5375V20.3625C12.3 20.6306 12.4736 20.85 12.6857 20.85C12.8979 20.85 13.0714 20.6306 13.0714 20.3625V13.5375C13.0714 13.2693 12.8979 13.05 12.6857 13.05ZM15 13.05C14.7879 13.05 14.6143 13.2693 14.6143 13.5375V20.3625C14.6143 20.6306 14.7879 20.85 15 20.85C15.2121 20.85 15.3857 20.6306 15.3857 20.3625V13.5375C15.3857 13.2693 15.2121 13.05 15 13.05ZM17.3143 13.05C17.1021 13.05 16.9286 13.2693 16.9286 13.5375V20.3625C16.9286 20.6306 17.1021 20.85 17.3143 20.85C17.5264 20.85 17.7 20.6306 17.7 20.3625V13.5375C17.7 13.2693 17.5264 13.05 17.3143 13.05Z" fill="white"/>
</svg>
