<svg width="30" height="30" viewBox="0 0 30 30" fill="none" xmlns="http://www.w3.org/2000/svg">
<circle cx="15" cy="15" r="15" fill="#74C0FC"/>
<path d="M19.7172 14.2469L20.0619 13.9022L19.0277 12.8683L17.1331 10.9743L16.0989 9.94034L15.7542 10.285L15.0647 10.9743L8.9875 17.0498C8.67021 17.367 8.43835 17.7604 8.31022 18.1905L7.23024 21.8626C7.15397 22.1188 7.22413 22.3964 7.41633 22.5855C7.60853 22.7745 7.88311 22.8447 8.13937 22.7715L11.8095 21.6918C12.2397 21.5637 12.6332 21.3319 12.9505 21.0147L19.0277 14.9392L19.7172 14.2469ZM12.081 19.383L11.8034 20.0753C11.6814 20.1699 11.5441 20.24 11.3976 20.2858L9.0119 20.9873L9.71359 18.6053C9.7563 18.4558 9.82952 18.3186 9.92409 18.1996L10.6166 17.9221V18.8981C10.6166 19.1665 10.8363 19.386 11.1048 19.386H12.081V19.383ZM18.265 7.77182L17.8257 8.21406L17.1362 8.90335L16.7884 9.248L17.8226 10.2819L19.7172 12.176L20.7514 13.2099L21.0961 12.8652L21.7856 12.176L22.228 11.7337C22.9907 10.9712 22.9907 9.73599 22.228 8.9735L21.029 7.77182C20.2663 7.00933 19.0307 7.00933 18.268 7.77182H18.265ZM16.8189 12.8957L12.4257 17.2877C12.2366 17.4768 11.9254 17.4768 11.7363 17.2877C11.5471 17.0986 11.5471 16.7875 11.7363 16.5984L16.1294 12.2065C16.3186 12.0174 16.6298 12.0174 16.8189 12.2065C17.0081 12.3956 17.0081 12.7066 16.8189 12.8957Z" fill="white"/>
</svg>
